#!OML:ASF E:/inclinewalkrobotboard/Project1/Captureday1/Session1/subject1.ASF
:FULLY-SPECIFIED
:DEGREES
301
root 0 0 0 1.384881664819318 -8.721567276151797 0.9282868901450393
lowerback 1.456243964737765 -1.265469879895985 -2.945270579626205
upperback -1.0605803804226352 -1.5605478349870907 2.231657091520258
thorax -1.6831875929611257 -0.7593644583456152 3.9350622206067896
lowerneck -26.477991863647446 -1.8881196198949177 -7.197385407417597
upperneck 11.86187034099187 -0.7251744761842424 4.5842444777571805
head 7.973157268106512 -0.18382257245789393 2.621806847334219
rclavicle -5.892757029733894E-15 -1.6428136134982547E-15
rhumerus -31.37959287560065 -1.4739335441854564 -80.94622594045082
rradius 30.86457697127492
rwrist 17.77712315234751
rhand -18.423286171755976 9.917344785843763
rfingers 7.125019999999954
rthumb 7.864650429939028 -19.913944952959326
lclavicle -1.8204656562007786E-15 -7.21736314016541E-16
lhumerus -10.832366949416178 8.78004060346013 89.65551986408875
lradius 59.93755364387563
lwrist -5.022369153060954
lhand -33.51203952981728 17.343891521081005
lfingers 7.125020000000008
lthumb -6.705282882513357 46.98425366506738
rfemur 10.906479840452503 7.916511286018709 36.79728574446871
rtibia 26.379018923140055
rfoot -20.073572087466108 -5.408123760584784
rtoes -2.5930172924641184
lfemur -31.758612139199183 -3.3630202374674623 -9.593415107757924
ltibia 27.720812268477022
lfoot -4.430574132011403 3.0628305749387716
ltoes -1.644727934737519
302
root 0 0 0 1.3831303364616265 -8.729812023047476 0.9220125899368321
lowerback 1.4411910437876296 -1.262380245372667 -2.945351439533451
upperback -1.068941539774559 -1.5563229059224188 2.2260508599491966
thorax -1.6831080464059656 -0.7576061234725836 3.9300849814799568
lowerneck -26.40326038516063 -1.8831513363791466 -7.209060476051433
upperneck 12.022811041335459 -0.7174331637649105 4.569679560788632
head 8.023031370050203 -0.18846501728110354 2.622124666096616
rclavicle -6.6583613471336385E-15 -1.7560178027235199E-15
rhumerus -31.352714040136078 -1.3525674063051918 -80.94371369807857
rradius 30.875665773895797
rwrist 17.754595885235474
rhand -18.44975510699522 9.927580756050373
rfingers 7.125019999999955
rthumb 7.8390569908138295 -19.906502822980926
lclavicle -2.2810930970192634E-15 -7.766263365908946E-16
lhumerus -10.680596962881308 9.022838019467397 89.57003069720803
lradius 59.85362138713212
lwrist -5.0951208919016535
lhand -33.542496551710755 17.287684915920885
lfingers 7.125020000000008
lthumb -6.7324913405823406 46.92558526814699
rfemur 13.278215740738885 7.128520847748856 34.17421499729262
rtibia 33.01745447254713
rfoot -15.19887579338683 -3.4833871654019934
rtoes -5.416905179178709
lfemur -31.14038018023588 -4.313852381468685 -9.52956828524455
ltibia 24.172690224585075
lfoot -4.55614483868667 3.4455258250439167
ltoes -1.7248190218852653
303
root 0 0 0 1.3833083482246191 -8.744984893112669 0.9200755558825923
lowerback 1.413212454942336 -1.2608563416469698 -2.95089031547744
upperback -1.0830150541403243 -1.5545965546738907 2.2213655564105275
thorax -1.6815706564313377 -0.7565226159357952 3.929160672588142
lowerneck -26.347708874494764 -1.8790347159642207 -7.22574047546276
upperneck 12.163464775477081 -0.7078032619332548 4.561013603682608
head 8.068929783041638 -0.19180702349450424 2.625361171280672
rclavicle -7.511282361868387E-15 -1.6273581344953547E-15
rhumerus -31.36657434092855 -1.3860196868484715 -80.92048497740753
rradius 30.85663363410053
rwrist 17.75250428289842
rhand -18.443976311179995 9.938267932679281
rfingers 7.125019999999954
rthumb 7.844434460504492 -19.898139437047192
lclavicle -2.7908459246895875E-15 -7.255178060009921E-16
lhumerus -10.285544062134536 9.319415593281896 89.3298224225655
lradius 59.88396038108985
lwrist -5.21365009483427
lhand -33.61095734077738 17.243662188007214
lfingers 7.125020000000008
lthumb -6.7970530015833495 46.876818440692176
rfemur 11.710147428759429 5.640199477520531 31.73874979252652
rtibia 42.05104534822617
rfoot -9.13456053663134 -1.3699065628516003
rtoes -4.6961759894974975
lfemur -28.916877088680106 -4.547868866866228 -10.891292369397238
ltibia 24.2955936340568
lfoot -3.7961106275446106 2.2004504753262872
ltoes -0.36903500343126083
304
root 0 0 0 1.3847410913189482 -8.758467310250568 0.9228779764880577
lowerback 1.3937274980759211 -1.2626384487511606 -2.955650199090806
upperback -1.0905698875509908 -1.5575330438838295 2.2201022266060693
thorax -1.6780886221700988 -0.757559686762005 3.930814541140489
lowerneck -26.35227107947923 -1.8789080998012921 -7.23384297750042
upperneck 12.199707897768738 -0.7022214614729008 4.558402716650997
head 8.084504492384903 -0.19215782470213758 2.627079573718172
rclavicle -7.702612901913724E-15 -1.5177173537907258E-15
rhumerus -31.427312424639968 -1.6479567835105886 -80.87794561056424
rradius 30.800682830512397
rwrist 17.76307554046821
rhand -18.393969692121786 9.960133874967536
rfingers 7.125019999999952
rthumb 7.892263169174098 -19.877532882938972
lclavicle -2.951787313895643E-15 -7.445365033016066E-16
lhumerus -9.971400151748243 9.582484607666693 89.1651960041133
lradius 59.912303642164176
lwrist -5.315751229866428
lhand -33.66678442833809 17.203943724193856
lfingers 7.125020000000008
lthumb -6.850311476431513 46.832639435152835
rfemur 3.8744968123080383 3.5814051258811013 29.01732349594123
rtibia 52.69963451809883
rfoot -0.5395774760013445 0.5473981553221323
rtoes 0.8207240557581001
lfemur -24.601786653634495 -4.455870123081489 -13.836992766233735
ltibia 27.107182861495822
lfoot -2.2650885017329108 -0.7948403037660765
ltoes 2.607210398027725
305
root 0 0 0 1.3927407824572926 -8.768892116894822 0.9352763822887118
lowerback 1.3918592389504274 -1.2718645399859223 -2.9578311897313756
upperback -1.079380431708962 -1.570944361249318 2.2247658525543885
thorax -1.6647964113104565 -0.7639308246188498 3.936441058268785
lowerneck -26.480339301026756 -1.8901524239563294 -7.228257096108624
upperneck 12.034962719897425 -0.7108379854688447 4.571391930875818
head 8.043122336501579 -0.18867841021640241 2.6266802113194654
rclavicle -7.180789615262968E-15 -1.4355545641576648E-15
rhumerus -31.59769810524294 -2.359630531954937 -80.77298339757228
rradius 30.655259494066076
rwrist 17.832208086821844
rhand -18.250980020299796 9.996289224055118
rfingers 7.125019999999949
rthumb 8.02919303512556 -19.836604377477222
lclavicle -2.8826077515814458E-15 -8.794582134315594E-16
lhumerus -9.912963650957817 9.718039829556425 89.1848258879242
lradius 59.89823007469115
lwrist -5.357211523358648
lhand -33.68303513688872 17.172325957248002
lfingers 7.125020000000009
lthumb -6.865887158819186 46.799025222518665
rfemur -5.996432031847436 2.126680409583101 26.15603264678059
rtibia 61.43842056362801
rfoot 5.793750478194228 -0.24595732781881718
rtoes 7.376045656115069
lfemur -19.731550852879252 -3.865715000172378 -17.090640449244763
ltibia 30.559904676136682
lfoot -0.9053563322471163 -3.6388135144700136
ltoes 5.4722890687740104
306
root 0 0 0 1.4120490593905815 -8.764205147687985 0.9600179326906328
lowerback 1.4031359326702197 -1.2852330700216992 -2.965936155337534
upperback -1.05371246998499 -1.589769262523706 2.2366450594164156
thorax -1.6436891364227755 -0.7728217309170564 3.9525997777490987
lowerneck -26.72217657145887 -1.919101390285016 -7.220491436945827
upperneck 11.601851977462879 -0.7501797015213623 4.633598902982022
head 7.917722421857133 -0.18268094492996095 2.635009423443171
rclavicle -6.022177480526936E-15 -1.0430116874793982E-15
rhumerus -31.9218989483349 -3.5874349829187837 -80.56502629856143
rradius 30.384975482436122
rwrist 18.02091950880163
rhand -17.991856823711178 10.035224961821354
rfingers 7.125019999999944
rthumb 8.277663869995651 -19.788464656143884
lclavicle -2.7845673334270787E-15 -9.336272042334434E-16
lhumerus -10.207605979147624 9.533989416177043 89.38433703351946
lradius 59.850380493675296
lwrist -5.253327714391126
lhand -33.615007463235294 17.20964880208127
lfingers 7.125020000000009
lthumb -6.801443524028511 46.839625149722785
rfemur -14.13074182639709 0.923385333740673 23.586829139547728
rtibia 68.15597904918286
rfoot 4.591940290960613 -3.424947358781627
rtoes 10.718931381078685
lfemur -15.379845213317093 -3.0092575096394922 -20.18670548309518
ltibia 32.17532277123016
lfoot -1.9205965807939567 -4.471694176121291
ltoes 7.369185546695828
307
root 0 0 0 1.439208326042929 -8.75408496610824 0.9910768179245543
lowerback 1.4009536582725615 -1.2973725306826795 -2.9859441074535913
upperback -1.032739397728705 -1.6069615241054829 2.250183174983095
thorax -1.6196276465896988 -0.7804265704075454 3.977791018533922
lowerneck -26.979880053247083 -1.957610927087666 -7.228982853919961
upperneck 11.07829018100981 -0.8079523131283585 4.736374001481896
head 7.761991521706941 -0.17810755593896155 2.656496550032566
rclavicle -4.40873171563084E-15 -8.060360760161715E-16
rhumerus -32.266747988053396 -4.797214421185357 -80.36557583027906
rradius 30.12590004596051
rwrist 18.270337842664503
rhand -17.723299944973324 10.021922864775552
rfingers 7.1250199999999415
rthumb 8.535521864355227 -19.7968269564426
lclavicle -2.550029980401973E-15 -8.031788902820272E-16
lhumerus -10.429256632231148 9.210414788370695 89.49267179591885
lradius 59.903026701589525
lwrist -5.124060823457546
lhand -33.551358783779676 17.299470133461867
lfingers 7.125020000000009
lthumb -6.743498222567195 46.93329798530915
rfemur -19.65599274958656 -0.04424608807119945 21.380072390137858
rtibia 71.02337340331235
rfoot 1.896902773429714 -5.056464906031388
rtoes 9.427662898084048
lfemur -10.54228849738653 -2.565508186272395 -23.74811611769715
ltibia 30.366159994656208
lfoot -6.2058708463368895 -3.265197526860343
ltoes 8.58980518406526
